<svg width="463" height="357" viewBox="0 0 463 357" fill="none" xmlns="http://www.w3.org/2000/svg">
<circle cx="-1.5" cy="2.5" r="2.5" fill="#AFAFAF"/>
<circle cx="-1.5" cy="24.5" r="2.5" fill="#AFAFAF"/>
<circle cx="-1.5" cy="46.5" r="2.5" fill="#AFAFAF"/>
<circle cx="-1.5" cy="68.5" r="2.5" fill="#AFAFAF"/>
<circle cx="-1.5" cy="90.5" r="2.5" fill="#AFAFAF"/>
<circle cx="-1.5" cy="112.5" r="2.5" fill="#AFAFAF"/>
<circle cx="-1.5" cy="134.5" r="2.5" fill="#AFAFAF"/>
<circle cx="-1.5" cy="156.5" r="2.5" fill="#AFAFAF"/>
<circle cx="-1.5" cy="178.5" r="2.5" fill="#AFAFAF"/>
<circle cx="-1.5" cy="200.5" r="2.5" fill="#AFAFAF"/>
<circle cx="-1.5" cy="222.5" r="2.5" fill="#AFAFAF"/>
<circle cx="-1.5" cy="244.5" r="2.5" fill="#AFAFAF"/>
<circle cx="-1.5" cy="266.5" r="2.5" fill="#AFAFAF"/>
<circle cx="-1.5" cy="288.5" r="2.5" fill="#AFAFAF"/>
<circle cx="-1.5" cy="310.5" r="2.5" fill="#AFAFAF"/>
<circle cx="-1.5" cy="332.5" r="2.5" fill="#AFAFAF"/>
<circle cx="-1.5" cy="354.5" r="2.5" fill="#AFAFAF"/>
<circle cx="20.5" cy="2.5" r="2.5" fill="#AFAFAF"/>
<circle cx="20.5" cy="24.5" r="2.5" fill="#AFAFAF"/>
<circle cx="20.5" cy="46.5" r="2.5" fill="#AFAFAF"/>
<circle cx="20.5" cy="68.5" r="2.5" fill="#AFAFAF"/>
<circle cx="20.5" cy="90.5" r="2.5" fill="#AFAFAF"/>
<circle cx="20.5" cy="112.5" r="2.5" fill="#AFAFAF"/>
<circle cx="20.5" cy="134.5" r="2.5" fill="#AFAFAF"/>
<circle cx="20.5" cy="156.5" r="2.5" fill="#AFAFAF"/>
<circle cx="20.5" cy="178.5" r="2.5" fill="#AFAFAF"/>
<circle cx="20.5" cy="200.5" r="2.5" fill="#AFAFAF"/>
<circle cx="20.5" cy="222.5" r="2.5" fill="#AFAFAF"/>
<circle cx="20.5" cy="244.5" r="2.5" fill="#AFAFAF"/>
<circle cx="20.5" cy="266.5" r="2.5" fill="#AFAFAF"/>
<circle cx="20.5" cy="288.5" r="2.5" fill="#AFAFAF"/>
<circle cx="20.5" cy="310.5" r="2.5" fill="#AFAFAF"/>
<circle cx="20.5" cy="332.5" r="2.5" fill="#AFAFAF"/>
<circle cx="20.5" cy="354.5" r="2.5" fill="#AFAFAF"/>
<circle cx="42.5" cy="2.5" r="2.5" fill="#AFAFAF"/>
<circle cx="42.5" cy="24.5" r="2.5" fill="#AFAFAF"/>
<circle cx="42.5" cy="46.5" r="2.5" fill="#AFAFAF"/>
<circle cx="42.5" cy="68.5" r="2.5" fill="#AFAFAF"/>
<circle cx="42.5" cy="90.5" r="2.5" fill="#AFAFAF"/>
<circle cx="42.5" cy="112.5" r="2.5" fill="#AFAFAF"/>
<circle cx="42.5" cy="134.5" r="2.5" fill="#AFAFAF"/>
<circle cx="42.5" cy="156.5" r="2.5" fill="#AFAFAF"/>
<circle cx="42.5" cy="178.5" r="2.5" fill="#AFAFAF"/>
<circle cx="42.5" cy="200.5" r="2.5" fill="#AFAFAF"/>
<circle cx="42.5" cy="222.5" r="2.5" fill="#AFAFAF"/>
<circle cx="42.5" cy="244.5" r="2.5" fill="#AFAFAF"/>
<circle cx="42.5" cy="266.5" r="2.5" fill="#AFAFAF"/>
<circle cx="42.5" cy="288.5" r="2.5" fill="#AFAFAF"/>
<circle cx="42.5" cy="310.5" r="2.5" fill="#AFAFAF"/>
<circle cx="42.5" cy="332.5" r="2.5" fill="#AFAFAF"/>
<circle cx="42.5" cy="354.5" r="2.5" fill="#AFAFAF"/>
<circle cx="64.5" cy="2.5" r="2.5" fill="#AFAFAF"/>
<circle cx="64.5" cy="24.5" r="2.5" fill="#AFAFAF"/>
<circle cx="64.5" cy="46.5" r="2.5" fill="#AFAFAF"/>
<circle cx="64.5" cy="68.5" r="2.5" fill="#AFAFAF"/>
<circle cx="64.5" cy="90.5" r="2.5" fill="#AFAFAF"/>
<circle cx="64.5" cy="112.5" r="2.5" fill="#AFAFAF"/>
<circle cx="64.5" cy="134.5" r="2.5" fill="#AFAFAF"/>
<circle cx="64.5" cy="156.5" r="2.5" fill="#AFAFAF"/>
<circle cx="64.5" cy="178.5" r="2.5" fill="#AFAFAF"/>
<circle cx="64.5" cy="200.5" r="2.5" fill="#AFAFAF"/>
<circle cx="64.5" cy="222.5" r="2.5" fill="#AFAFAF"/>
<circle cx="64.5" cy="244.5" r="2.5" fill="#AFAFAF"/>
<circle cx="64.5" cy="266.5" r="2.5" fill="#AFAFAF"/>
<circle cx="64.5" cy="288.5" r="2.5" fill="#AFAFAF"/>
<circle cx="64.5" cy="310.5" r="2.5" fill="#AFAFAF"/>
<circle cx="64.5" cy="332.5" r="2.5" fill="#AFAFAF"/>
<circle cx="64.5" cy="354.5" r="2.5" fill="#AFAFAF"/>
<circle cx="86.5" cy="2.5" r="2.5" fill="#AFAFAF"/>
<circle cx="86.5" cy="24.5" r="2.5" fill="#AFAFAF"/>
<circle cx="86.5" cy="46.5" r="2.5" fill="#AFAFAF"/>
<circle cx="86.5" cy="68.5" r="2.5" fill="#AFAFAF"/>
<circle cx="86.5" cy="90.5" r="2.5" fill="#AFAFAF"/>
<circle cx="86.5" cy="112.5" r="2.5" fill="#AFAFAF"/>
<circle cx="86.5" cy="134.5" r="2.5" fill="#AFAFAF"/>
<circle cx="86.5" cy="156.5" r="2.5" fill="#AFAFAF"/>
<circle cx="86.5" cy="178.5" r="2.5" fill="#AFAFAF"/>
<circle cx="86.5" cy="200.5" r="2.5" fill="#AFAFAF"/>
<circle cx="86.5" cy="222.5" r="2.5" fill="#AFAFAF"/>
<circle cx="86.5" cy="244.5" r="2.5" fill="#AFAFAF"/>
<circle cx="86.5" cy="266.5" r="2.5" fill="#AFAFAF"/>
<circle cx="86.5" cy="288.5" r="2.5" fill="#AFAFAF"/>
<circle cx="86.5" cy="310.5" r="2.5" fill="#AFAFAF"/>
<circle cx="86.5" cy="332.5" r="2.5" fill="#AFAFAF"/>
<circle cx="86.5" cy="354.5" r="2.5" fill="#AFAFAF"/>
<circle cx="108.5" cy="2.5" r="2.5" fill="#AFAFAF"/>
<circle cx="108.5" cy="24.5" r="2.5" fill="#AFAFAF"/>
<circle cx="108.5" cy="46.5" r="2.5" fill="#AFAFAF"/>
<circle cx="108.5" cy="68.5" r="2.5" fill="#AFAFAF"/>
<circle cx="108.5" cy="90.5" r="2.5" fill="#AFAFAF"/>
<circle cx="108.5" cy="112.5" r="2.5" fill="#AFAFAF"/>
<circle cx="108.5" cy="134.5" r="2.5" fill="#AFAFAF"/>
<circle cx="108.5" cy="156.5" r="2.5" fill="#AFAFAF"/>
<circle cx="108.5" cy="178.5" r="2.5" fill="#AFAFAF"/>
<circle cx="108.5" cy="200.5" r="2.5" fill="#AFAFAF"/>
<circle cx="108.5" cy="222.5" r="2.5" fill="#AFAFAF"/>
<circle cx="108.5" cy="244.5" r="2.5" fill="#AFAFAF"/>
<circle cx="108.5" cy="266.5" r="2.5" fill="#AFAFAF"/>
<circle cx="108.5" cy="288.5" r="2.5" fill="#AFAFAF"/>
<circle cx="108.5" cy="310.5" r="2.5" fill="#AFAFAF"/>
<circle cx="108.5" cy="332.5" r="2.5" fill="#AFAFAF"/>
<circle cx="108.5" cy="354.5" r="2.5" fill="#AFAFAF"/>
<circle cx="130.5" cy="2.5" r="2.5" fill="#AFAFAF"/>
<circle cx="130.5" cy="24.5" r="2.5" fill="#AFAFAF"/>
<circle cx="130.5" cy="46.5" r="2.5" fill="#AFAFAF"/>
<circle cx="130.5" cy="68.5" r="2.5" fill="#AFAFAF"/>
<circle cx="130.5" cy="90.5" r="2.5" fill="#AFAFAF"/>
<circle cx="130.5" cy="112.5" r="2.5" fill="#AFAFAF"/>
<circle cx="130.5" cy="134.5" r="2.5" fill="#AFAFAF"/>
<circle cx="130.5" cy="156.5" r="2.5" fill="#AFAFAF"/>
<circle cx="130.5" cy="178.5" r="2.5" fill="#AFAFAF"/>
<circle cx="130.5" cy="200.5" r="2.5" fill="#AFAFAF"/>
<circle cx="130.5" cy="222.5" r="2.5" fill="#AFAFAF"/>
<circle cx="130.5" cy="244.5" r="2.5" fill="#AFAFAF"/>
<circle cx="130.5" cy="266.5" r="2.5" fill="#AFAFAF"/>
<circle cx="130.5" cy="288.5" r="2.5" fill="#AFAFAF"/>
<circle cx="130.5" cy="310.5" r="2.5" fill="#AFAFAF"/>
<circle cx="130.5" cy="332.5" r="2.5" fill="#AFAFAF"/>
<circle cx="130.5" cy="354.5" r="2.5" fill="#AFAFAF"/>
<circle cx="152.5" cy="2.5" r="2.5" fill="#AFAFAF"/>
<circle cx="152.5" cy="24.5" r="2.5" fill="#AFAFAF"/>
<circle cx="152.5" cy="46.5" r="2.5" fill="#AFAFAF"/>
<circle cx="152.5" cy="68.5" r="2.5" fill="#AFAFAF"/>
<circle cx="152.5" cy="90.5" r="2.5" fill="#AFAFAF"/>
<circle cx="152.5" cy="112.5" r="2.5" fill="#AFAFAF"/>
<circle cx="152.5" cy="134.5" r="2.5" fill="#AFAFAF"/>
<circle cx="152.5" cy="156.5" r="2.5" fill="#AFAFAF"/>
<circle cx="152.5" cy="178.5" r="2.5" fill="#AFAFAF"/>
<circle cx="152.5" cy="200.5" r="2.5" fill="#AFAFAF"/>
<circle cx="152.5" cy="222.5" r="2.5" fill="#AFAFAF"/>
<circle cx="152.5" cy="244.5" r="2.5" fill="#AFAFAF"/>
<circle cx="152.5" cy="266.5" r="2.5" fill="#AFAFAF"/>
<circle cx="152.5" cy="288.5" r="2.5" fill="#AFAFAF"/>
<circle cx="152.5" cy="310.5" r="2.5" fill="#AFAFAF"/>
<circle cx="152.5" cy="332.5" r="2.5" fill="#AFAFAF"/>
<circle cx="152.5" cy="354.5" r="2.5" fill="#AFAFAF"/>
<circle cx="174.5" cy="2.5" r="2.5" fill="#AFAFAF"/>
<circle cx="174.5" cy="24.5" r="2.5" fill="#AFAFAF"/>
<circle cx="174.5" cy="46.5" r="2.5" fill="#AFAFAF"/>
<circle cx="174.5" cy="68.5" r="2.5" fill="#AFAFAF"/>
<circle cx="174.5" cy="90.5" r="2.5" fill="#AFAFAF"/>
<circle cx="174.5" cy="112.5" r="2.5" fill="#AFAFAF"/>
<circle cx="174.5" cy="134.5" r="2.5" fill="#AFAFAF"/>
<circle cx="174.5" cy="156.5" r="2.5" fill="#AFAFAF"/>
<circle cx="174.5" cy="178.5" r="2.5" fill="#AFAFAF"/>
<circle cx="174.5" cy="200.5" r="2.5" fill="#AFAFAF"/>
<circle cx="174.5" cy="222.5" r="2.5" fill="#AFAFAF"/>
<circle cx="174.5" cy="244.5" r="2.5" fill="#AFAFAF"/>
<circle cx="174.5" cy="266.5" r="2.5" fill="#AFAFAF"/>
<circle cx="174.5" cy="288.5" r="2.5" fill="#AFAFAF"/>
<circle cx="174.5" cy="310.5" r="2.5" fill="#AFAFAF"/>
<circle cx="174.5" cy="332.5" r="2.5" fill="#AFAFAF"/>
<circle cx="174.5" cy="354.5" r="2.5" fill="#AFAFAF"/>
<circle cx="196.5" cy="2.5" r="2.5" fill="#AFAFAF"/>
<circle cx="196.5" cy="24.5" r="2.5" fill="#AFAFAF"/>
<circle cx="196.5" cy="46.5" r="2.5" fill="#AFAFAF"/>
<circle cx="196.5" cy="68.5" r="2.5" fill="#AFAFAF"/>
<circle cx="196.5" cy="90.5" r="2.5" fill="#AFAFAF"/>
<circle cx="196.5" cy="112.5" r="2.5" fill="#AFAFAF"/>
<circle cx="196.5" cy="134.5" r="2.5" fill="#AFAFAF"/>
<circle cx="196.5" cy="156.5" r="2.5" fill="#AFAFAF"/>
<circle cx="196.5" cy="178.5" r="2.5" fill="#AFAFAF"/>
<circle cx="196.5" cy="200.5" r="2.5" fill="#AFAFAF"/>
<circle cx="196.5" cy="222.5" r="2.5" fill="#AFAFAF"/>
<circle cx="196.5" cy="244.5" r="2.5" fill="#AFAFAF"/>
<circle cx="196.5" cy="266.5" r="2.5" fill="#AFAFAF"/>
<circle cx="196.5" cy="288.5" r="2.5" fill="#AFAFAF"/>
<circle cx="196.5" cy="310.5" r="2.5" fill="#AFAFAF"/>
<circle cx="196.5" cy="332.5" r="2.5" fill="#AFAFAF"/>
<circle cx="196.5" cy="354.5" r="2.5" fill="#AFAFAF"/>
<circle cx="218.5" cy="2.5" r="2.5" fill="#AFAFAF"/>
<circle cx="218.5" cy="24.5" r="2.5" fill="#AFAFAF"/>
<circle cx="218.5" cy="46.5" r="2.5" fill="#AFAFAF"/>
<circle cx="218.5" cy="68.5" r="2.5" fill="#AFAFAF"/>
<circle cx="218.5" cy="90.5" r="2.5" fill="#AFAFAF"/>
<circle cx="218.5" cy="112.5" r="2.5" fill="#AFAFAF"/>
<circle cx="218.5" cy="134.5" r="2.5" fill="#AFAFAF"/>
<circle cx="218.5" cy="156.5" r="2.5" fill="#AFAFAF"/>
<circle cx="218.5" cy="178.5" r="2.5" fill="#AFAFAF"/>
<circle cx="218.5" cy="200.5" r="2.5" fill="#AFAFAF"/>
<circle cx="218.5" cy="222.5" r="2.5" fill="#AFAFAF"/>
<circle cx="218.5" cy="244.5" r="2.5" fill="#AFAFAF"/>
<circle cx="218.5" cy="266.5" r="2.5" fill="#AFAFAF"/>
<circle cx="218.5" cy="288.5" r="2.5" fill="#AFAFAF"/>
<circle cx="218.5" cy="310.5" r="2.5" fill="#AFAFAF"/>
<circle cx="218.5" cy="332.5" r="2.5" fill="#AFAFAF"/>
<circle cx="218.5" cy="354.5" r="2.5" fill="#AFAFAF"/>
<circle cx="240.5" cy="2.5" r="2.5" fill="#AFAFAF"/>
<circle cx="240.5" cy="24.5" r="2.5" fill="#AFAFAF"/>
<circle cx="240.5" cy="46.5" r="2.5" fill="#AFAFAF"/>
<circle cx="240.5" cy="68.5" r="2.5" fill="#AFAFAF"/>
<circle cx="240.5" cy="90.5" r="2.5" fill="#AFAFAF"/>
<circle cx="240.5" cy="112.5" r="2.5" fill="#AFAFAF"/>
<circle cx="240.5" cy="134.5" r="2.5" fill="#AFAFAF"/>
<circle cx="240.5" cy="156.5" r="2.5" fill="#AFAFAF"/>
<circle cx="240.5" cy="178.5" r="2.5" fill="#AFAFAF"/>
<circle cx="240.5" cy="200.5" r="2.5" fill="#AFAFAF"/>
<circle cx="240.5" cy="222.5" r="2.5" fill="#AFAFAF"/>
<circle cx="240.5" cy="244.5" r="2.5" fill="#AFAFAF"/>
<circle cx="240.5" cy="266.5" r="2.5" fill="#AFAFAF"/>
<circle cx="240.5" cy="288.5" r="2.5" fill="#AFAFAF"/>
<circle cx="240.5" cy="310.5" r="2.5" fill="#AFAFAF"/>
<circle cx="240.5" cy="332.5" r="2.5" fill="#AFAFAF"/>
<circle cx="240.5" cy="354.5" r="2.5" fill="#AFAFAF"/>
<circle cx="262.5" cy="2.5" r="2.5" fill="#AFAFAF"/>
<circle cx="262.5" cy="24.5" r="2.5" fill="#AFAFAF"/>
<circle cx="262.5" cy="46.5" r="2.5" fill="#AFAFAF"/>
<circle cx="262.5" cy="68.5" r="2.5" fill="#AFAFAF"/>
<circle cx="262.5" cy="90.5" r="2.5" fill="#AFAFAF"/>
<circle cx="262.5" cy="112.5" r="2.5" fill="#AFAFAF"/>
<circle cx="262.5" cy="134.5" r="2.5" fill="#AFAFAF"/>
<circle cx="262.5" cy="156.5" r="2.5" fill="#AFAFAF"/>
<circle cx="262.5" cy="178.5" r="2.5" fill="#AFAFAF"/>
<circle cx="262.5" cy="200.5" r="2.5" fill="#AFAFAF"/>
<circle cx="262.5" cy="222.5" r="2.5" fill="#AFAFAF"/>
<circle cx="262.5" cy="244.5" r="2.5" fill="#AFAFAF"/>
<circle cx="262.5" cy="266.5" r="2.5" fill="#AFAFAF"/>
<circle cx="262.5" cy="288.5" r="2.5" fill="#AFAFAF"/>
<circle cx="262.5" cy="310.5" r="2.5" fill="#AFAFAF"/>
<circle cx="262.5" cy="332.5" r="2.5" fill="#AFAFAF"/>
<circle cx="262.5" cy="354.5" r="2.5" fill="#AFAFAF"/>
<circle cx="284.5" cy="2.5" r="2.5" fill="#AFAFAF"/>
<circle cx="284.5" cy="24.5" r="2.5" fill="#AFAFAF"/>
<circle cx="284.5" cy="46.5" r="2.5" fill="#AFAFAF"/>
<circle cx="284.5" cy="68.5" r="2.5" fill="#AFAFAF"/>
<circle cx="284.5" cy="90.5" r="2.5" fill="#AFAFAF"/>
<circle cx="284.5" cy="112.5" r="2.5" fill="#AFAFAF"/>
<circle cx="284.5" cy="134.5" r="2.5" fill="#AFAFAF"/>
<circle cx="284.5" cy="156.5" r="2.5" fill="#AFAFAF"/>
<circle cx="284.5" cy="178.5" r="2.5" fill="#AFAFAF"/>
<circle cx="284.5" cy="200.5" r="2.5" fill="#AFAFAF"/>
<circle cx="284.5" cy="222.5" r="2.5" fill="#AFAFAF"/>
<circle cx="284.5" cy="244.5" r="2.5" fill="#AFAFAF"/>
<circle cx="284.5" cy="266.5" r="2.5" fill="#AFAFAF"/>
<circle cx="284.5" cy="288.5" r="2.5" fill="#AFAFAF"/>
<circle cx="284.5" cy="310.5" r="2.5" fill="#AFAFAF"/>
<circle cx="284.5" cy="332.5" r="2.5" fill="#AFAFAF"/>
<circle cx="284.5" cy="354.5" r="2.5" fill="#AFAFAF"/>
<circle cx="306.5" cy="2.5" r="2.5" fill="#AFAFAF"/>
<circle cx="306.5" cy="24.5" r="2.5" fill="#AFAFAF"/>
<circle cx="306.5" cy="46.5" r="2.5" fill="#AFAFAF"/>
<circle cx="306.5" cy="68.5" r="2.5" fill="#AFAFAF"/>
<circle cx="306.5" cy="90.5" r="2.5" fill="#AFAFAF"/>
<circle cx="306.5" cy="112.5" r="2.5" fill="#AFAFAF"/>
<circle cx="306.5" cy="134.5" r="2.5" fill="#AFAFAF"/>
<circle cx="306.5" cy="156.5" r="2.5" fill="#AFAFAF"/>
<circle cx="306.5" cy="178.5" r="2.5" fill="#AFAFAF"/>
<circle cx="306.5" cy="200.5" r="2.5" fill="#AFAFAF"/>
<circle cx="306.5" cy="222.5" r="2.5" fill="#AFAFAF"/>
<circle cx="306.5" cy="244.5" r="2.5" fill="#AFAFAF"/>
<circle cx="306.5" cy="266.5" r="2.5" fill="#AFAFAF"/>
<circle cx="306.5" cy="288.5" r="2.5" fill="#AFAFAF"/>
<circle cx="306.5" cy="310.5" r="2.5" fill="#AFAFAF"/>
<circle cx="306.5" cy="332.5" r="2.5" fill="#AFAFAF"/>
<circle cx="306.5" cy="354.5" r="2.5" fill="#AFAFAF"/>
<circle cx="328.5" cy="2.5" r="2.5" fill="#AFAFAF"/>
<circle cx="328.5" cy="24.5" r="2.5" fill="#AFAFAF"/>
<circle cx="328.5" cy="46.5" r="2.5" fill="#AFAFAF"/>
<circle cx="328.5" cy="68.5" r="2.5" fill="#AFAFAF"/>
<circle cx="328.5" cy="90.5" r="2.5" fill="#AFAFAF"/>
<circle cx="328.5" cy="112.5" r="2.5" fill="#AFAFAF"/>
<circle cx="328.5" cy="134.5" r="2.5" fill="#AFAFAF"/>
<circle cx="328.5" cy="156.5" r="2.5" fill="#AFAFAF"/>
<circle cx="328.5" cy="178.5" r="2.5" fill="#AFAFAF"/>
<circle cx="328.5" cy="200.5" r="2.5" fill="#AFAFAF"/>
<circle cx="328.5" cy="222.5" r="2.5" fill="#AFAFAF"/>
<circle cx="328.5" cy="244.5" r="2.5" fill="#AFAFAF"/>
<circle cx="328.5" cy="266.5" r="2.5" fill="#AFAFAF"/>
<circle cx="328.5" cy="288.5" r="2.5" fill="#AFAFAF"/>
<circle cx="328.5" cy="310.5" r="2.5" fill="#AFAFAF"/>
<circle cx="328.5" cy="332.5" r="2.5" fill="#AFAFAF"/>
<circle cx="328.5" cy="354.5" r="2.5" fill="#AFAFAF"/>
<circle cx="350.5" cy="2.5" r="2.5" fill="#AFAFAF"/>
<circle cx="350.5" cy="24.5" r="2.5" fill="#AFAFAF"/>
<circle cx="350.5" cy="46.5" r="2.5" fill="#AFAFAF"/>
<circle cx="350.5" cy="68.5" r="2.5" fill="#AFAFAF"/>
<circle cx="350.5" cy="90.5" r="2.5" fill="#AFAFAF"/>
<circle cx="350.5" cy="112.5" r="2.5" fill="#AFAFAF"/>
<circle cx="350.5" cy="134.5" r="2.5" fill="#AFAFAF"/>
<circle cx="350.5" cy="156.5" r="2.5" fill="#AFAFAF"/>
<circle cx="350.5" cy="178.5" r="2.5" fill="#AFAFAF"/>
<circle cx="350.5" cy="200.5" r="2.5" fill="#AFAFAF"/>
<circle cx="350.5" cy="222.5" r="2.5" fill="#AFAFAF"/>
<circle cx="350.5" cy="244.5" r="2.5" fill="#AFAFAF"/>
<circle cx="350.5" cy="266.5" r="2.5" fill="#AFAFAF"/>
<circle cx="350.5" cy="288.5" r="2.5" fill="#AFAFAF"/>
<circle cx="350.5" cy="310.5" r="2.5" fill="#AFAFAF"/>
<circle cx="350.5" cy="332.5" r="2.5" fill="#AFAFAF"/>
<circle cx="350.5" cy="354.5" r="2.5" fill="#AFAFAF"/>
<circle cx="372.5" cy="2.5" r="2.5" fill="#AFAFAF"/>
<circle cx="372.5" cy="24.5" r="2.5" fill="#AFAFAF"/>
<circle cx="372.5" cy="46.5" r="2.5" fill="#AFAFAF"/>
<circle cx="372.5" cy="68.5" r="2.5" fill="#AFAFAF"/>
<circle cx="372.5" cy="90.5" r="2.5" fill="#AFAFAF"/>
<circle cx="372.5" cy="112.5" r="2.5" fill="#AFAFAF"/>
<circle cx="372.5" cy="134.5" r="2.5" fill="#AFAFAF"/>
<circle cx="372.5" cy="156.5" r="2.5" fill="#AFAFAF"/>
<circle cx="372.5" cy="178.5" r="2.5" fill="#AFAFAF"/>
<circle cx="372.5" cy="200.5" r="2.5" fill="#AFAFAF"/>
<circle cx="372.5" cy="222.5" r="2.5" fill="#AFAFAF"/>
<circle cx="372.5" cy="244.5" r="2.5" fill="#AFAFAF"/>
<circle cx="372.5" cy="266.5" r="2.5" fill="#AFAFAF"/>
<circle cx="372.5" cy="288.5" r="2.5" fill="#AFAFAF"/>
<circle cx="372.5" cy="310.5" r="2.5" fill="#AFAFAF"/>
<circle cx="372.5" cy="332.5" r="2.5" fill="#AFAFAF"/>
<circle cx="372.5" cy="354.5" r="2.5" fill="#AFAFAF"/>
<circle cx="394.5" cy="2.5" r="2.5" fill="#AFAFAF"/>
<circle cx="394.5" cy="24.5" r="2.5" fill="#AFAFAF"/>
<circle cx="394.5" cy="46.5" r="2.5" fill="#AFAFAF"/>
<circle cx="394.5" cy="68.5" r="2.5" fill="#AFAFAF"/>
<circle cx="394.5" cy="90.5" r="2.5" fill="#AFAFAF"/>
<circle cx="394.5" cy="112.5" r="2.5" fill="#AFAFAF"/>
<circle cx="394.5" cy="134.5" r="2.5" fill="#AFAFAF"/>
<circle cx="394.5" cy="156.5" r="2.5" fill="#AFAFAF"/>
<circle cx="394.5" cy="178.5" r="2.5" fill="#AFAFAF"/>
<circle cx="394.5" cy="200.5" r="2.5" fill="#AFAFAF"/>
<circle cx="394.5" cy="222.5" r="2.5" fill="#AFAFAF"/>
<circle cx="394.5" cy="244.5" r="2.5" fill="#AFAFAF"/>
<circle cx="394.5" cy="266.5" r="2.5" fill="#AFAFAF"/>
<circle cx="394.5" cy="288.5" r="2.5" fill="#AFAFAF"/>
<circle cx="394.5" cy="310.5" r="2.5" fill="#AFAFAF"/>
<circle cx="394.5" cy="332.5" r="2.5" fill="#AFAFAF"/>
<circle cx="394.5" cy="354.5" r="2.5" fill="#AFAFAF"/>
<circle cx="416.5" cy="2.5" r="2.5" fill="#AFAFAF"/>
<circle cx="416.5" cy="24.5" r="2.5" fill="#AFAFAF"/>
<circle cx="416.5" cy="46.5" r="2.5" fill="#AFAFAF"/>
<circle cx="416.5" cy="68.5" r="2.5" fill="#AFAFAF"/>
<circle cx="416.5" cy="90.5" r="2.5" fill="#AFAFAF"/>
<circle cx="416.5" cy="112.5" r="2.5" fill="#AFAFAF"/>
<circle cx="416.5" cy="134.5" r="2.5" fill="#AFAFAF"/>
<circle cx="416.5" cy="156.5" r="2.5" fill="#AFAFAF"/>
<circle cx="416.5" cy="178.5" r="2.5" fill="#AFAFAF"/>
<circle cx="416.5" cy="200.5" r="2.5" fill="#AFAFAF"/>
<circle cx="416.5" cy="222.5" r="2.5" fill="#AFAFAF"/>
<circle cx="416.5" cy="244.5" r="2.5" fill="#AFAFAF"/>
<circle cx="416.5" cy="266.5" r="2.5" fill="#AFAFAF"/>
<circle cx="416.5" cy="288.5" r="2.5" fill="#AFAFAF"/>
<circle cx="416.5" cy="310.5" r="2.5" fill="#AFAFAF"/>
<circle cx="416.5" cy="332.5" r="2.5" fill="#AFAFAF"/>
<circle cx="416.5" cy="354.5" r="2.5" fill="#AFAFAF"/>
<circle cx="438.5" cy="2.5" r="2.5" fill="#AFAFAF"/>
<circle cx="438.5" cy="24.5" r="2.5" fill="#AFAFAF"/>
<circle cx="438.5" cy="46.5" r="2.5" fill="#AFAFAF"/>
<circle cx="438.5" cy="68.5" r="2.5" fill="#AFAFAF"/>
<circle cx="438.5" cy="90.5" r="2.5" fill="#AFAFAF"/>
<circle cx="438.5" cy="112.5" r="2.5" fill="#AFAFAF"/>
<circle cx="438.5" cy="134.5" r="2.5" fill="#AFAFAF"/>
<circle cx="438.5" cy="156.5" r="2.5" fill="#AFAFAF"/>
<circle cx="438.5" cy="178.5" r="2.5" fill="#AFAFAF"/>
<circle cx="438.5" cy="200.5" r="2.5" fill="#AFAFAF"/>
<circle cx="438.5" cy="222.5" r="2.5" fill="#AFAFAF"/>
<circle cx="438.5" cy="244.5" r="2.5" fill="#AFAFAF"/>
<circle cx="438.5" cy="266.5" r="2.5" fill="#AFAFAF"/>
<circle cx="438.5" cy="288.5" r="2.5" fill="#AFAFAF"/>
<circle cx="438.5" cy="310.5" r="2.5" fill="#AFAFAF"/>
<circle cx="438.5" cy="332.5" r="2.5" fill="#AFAFAF"/>
<circle cx="438.5" cy="354.5" r="2.5" fill="#AFAFAF"/>
<circle cx="460.5" cy="2.5" r="2.5" fill="#AFAFAF"/>
<circle cx="460.5" cy="24.5" r="2.5" fill="#AFAFAF"/>
<circle cx="460.5" cy="46.5" r="2.5" fill="#AFAFAF"/>
<circle cx="460.5" cy="68.5" r="2.5" fill="#AFAFAF"/>
<circle cx="460.5" cy="90.5" r="2.5" fill="#AFAFAF"/>
<circle cx="460.5" cy="112.5" r="2.5" fill="#AFAFAF"/>
<circle cx="460.5" cy="134.5" r="2.5" fill="#AFAFAF"/>
<circle cx="460.5" cy="156.5" r="2.5" fill="#AFAFAF"/>
<circle cx="460.5" cy="178.5" r="2.5" fill="#AFAFAF"/>
<circle cx="460.5" cy="200.5" r="2.5" fill="#AFAFAF"/>
<circle cx="460.5" cy="222.5" r="2.5" fill="#AFAFAF"/>
<circle cx="460.5" cy="244.5" r="2.5" fill="#AFAFAF"/>
<circle cx="460.5" cy="266.5" r="2.5" fill="#AFAFAF"/>
<circle cx="460.5" cy="288.5" r="2.5" fill="#AFAFAF"/>
<circle cx="460.5" cy="310.5" r="2.5" fill="#AFAFAF"/>
<circle cx="460.5" cy="332.5" r="2.5" fill="#AFAFAF"/>
<circle cx="460.5" cy="354.5" r="2.5" fill="#AFAFAF"/>
</svg>
